<svg width="420" height="428" viewBox="0 0 420 428" fill="none" xmlns="http://www.w3.org/2000/svg">
<g clip-path="url(#clip0_421_3212)">
<path d="M388.163 348.499V16.8253C-100.132 -92.365 11.9155 393.201 11.9155 393.201H340.235C343.105 412.301 359.585 426.951 379.481 426.951C401.402 426.951 419.173 409.174 419.173 387.245C419.173 368.302 405.909 352.47 388.163 348.507V348.499Z" fill="#D28573" stroke="black" stroke-width="2"/>
<path d="M179.963 153.429C179.93 171.247 165.467 185.665 147.655 185.632L147.391 344.454C165.202 344.487 179.616 358.955 179.583 376.773L340.368 377.037C343.486 361.718 355.427 349.616 370.65 346.249L370.915 186.004C353.103 185.971 338.69 171.503 338.723 153.685C338.723 153.685 180.922 154.388 179.955 153.421L179.963 153.429ZM264.78 243.726C278.25 243.751 289.157 254.695 289.133 268.17C289.108 281.645 278.168 292.556 264.697 292.531C251.227 292.506 240.32 281.562 240.344 268.087C240.369 254.612 251.309 243.701 264.78 243.726Z" fill="#389D74" stroke="black" stroke-width="2" stroke-miterlimit="10"/>
<path d="M367.896 383.076L372.304 387.493L379.333 387.005L379.812 379.982L375.397 375.565L367.896 383.076Z" fill="white"/>
<path d="M380.883 358.772L371.609 368.049L390.595 387.041L399.869 377.764L380.883 358.772Z" stroke="white" stroke-width="2" stroke-miterlimit="10"/>
<path d="M360.375 379.288L351.102 388.565L370.087 407.557L379.361 398.281L360.375 379.288Z" stroke="white" stroke-width="2" stroke-miterlimit="10"/>
<path d="M377 137.183H362.115V152.072H377V137.183Z" fill="white" stroke="black" stroke-width="2" stroke-miterlimit="10"/>
<path d="M146.291 370.039H131.406V384.929H146.291V370.039Z" fill="white" stroke="black" stroke-width="2" stroke-miterlimit="10"/>
<path d="M146.291 137.183H131.406V152.072H146.291V137.183Z" fill="white" stroke="black" stroke-width="2" stroke-miterlimit="10"/>
</g>
<defs>
<clipPath id="clip0_421_3212">
<rect width="420" height="427.778" fill="white"/>
</clipPath>
</defs>
</svg>
